# xmcd
#
# Track frame offsets:
# 150
# 10832
# 24161
# 36518
# 48740
# 61865
# 74630
# 87890
# 97238
# 104793
# 115812
# 126292
# 137264
# 145779
#
# Disc length: 2139 seconds
#
#
# Revision: 0
# Processed by: cddbd v1.5.1PL0 Copyright (c) Steve Scherf et al.
# Submitted via: FreeRIP 2.942 
#
DISCID=c908590e
DTITLE=Eda-Pelle and Arvikingarna - Vita Älgen
DYEAR=1900
DGENRE=Folk/Rock
TTITLE0=01 - Ungkarl
TTITLE1=02 - bakom dasset
TTITLE2=03 - varför lämmnade du mej
TTITLE3=04 - den lilla söta vita älgen
TTITLE4=05 - Brudarnas Börje
TTITLE5=06 - diggilo diggilej
TTITLE6=07 - Får man ta med sig hästen
TTITLE7=08 - I Eda
TTITLE8=09 - Musik ska byggas av glädje
TTITLE9=10 - Åka till Charlottenberg
TTITLE10=11 - Skrot-Kalle boogie
TTITLE11=12 - min första Amazon
TTITLE12=13 - Jacksson
TTITLE13=14 - ett litet ljus
EXTD=
EXTT0=
EXTT1=
EXTT2=
EXTT3=
EXTT4=
EXTT5=
EXTT6=
EXTT7=
EXTT8=
EXTT9=
EXTT10=
EXTT11=
EXTT12=
EXTT13=
PLAYORDER=
